<?xml version="1.0" encoding="UTF-8"?>
<svg id="Layer_1" xmlns="http://www.w3.org/2000/svg" width="2250" height="2250" xmlns:xodm="http://www.corel.com/coreldraw/odm/2003" xmlns:xlink="http://www.w3.org/1999/xlink" version="1.1" viewBox="0 0 2250 2250">
  <!-- Generator: Adobe Illustrator 29.5.1, SVG Export Plug-In . SVG Version: 2.1.0 Build 141)  -->
  <defs>
    <linearGradient id="linear-gradient" x1="0" y1="1125" x2="2250" y2="1125" gradientTransform="translate(0 2250) scale(1 -1)" gradientUnits="userSpaceOnUse">
      <stop offset="0" stop-color="#449cfb"/>
<stop offset="1" stop-color="#f5709a"/>
    </linearGradient>
  </defs>
  <g id="Layer_x5F_1">
    <rect x="-75" y="-75" width="2400" height="2400" style="fill: none;"/>
    <g id="_2261395808592">
      <path d="M1125,0c621.32,0,1125,503.68,1125,1125s-503.68,1125-1125,1125S0,1746.32,0,1125,503.68,0,1125,0ZM1302.26,1560.51h-358.6c-34.41,0-65.04-42.31-33.71-73.77,8.96-8.99,22.03-14.65,33.71-14.65h386.4c34.4,0,65.04,42.29,33.7,73.76-17.8,17.89-37.07,14.66-61.5,14.66h0ZM943.13,1674.15v144.09c0,3.67.57,7.1,1.6,10.16,1.05,3.12,2.57,5.88,4.44,8.12,1.57,1.9,3.39,3.41,5.33,4.41,1.71.87,3.57,1.36,5.51,1.36h203.57c6.42,0,12.22,2.75,16.41,7.18,4.08,4.32,6.61,10.27,6.61,16.8,0,1.42-.13,2.85-.38,4.28-.21,1.26-.54,2.5-.97,3.74-2.23,8.21-5.1,16.3-8.32,24.32l-.5,1.25,2.64-1.89c11.6-8.19,23.2-16.41,35.46-25.42,11.34-8.33,22.26-16.67,32.32-25.01,2.04-1.68,4.32-2.96,6.7-3.83l.89-.3v-1.12h59.26c1.94,0,3.81-.49,5.52-1.36,1.91-.98,3.72-2.5,5.3-4.41,1.9-2.24,3.42-5,4.47-8.12,1.04-3.06,1.61-6.49,1.61-10.16v-144.09c0-3.67-.57-7.09-1.6-10.14-1.07-3.15-2.59-5.92-4.45-8.15-1.61-1.91-3.42-3.42-5.33-4.4-1.74-.88-3.6-1.37-5.52-1.37h-353.69c-1.93,0-3.79.49-5.49,1.35-1.97,1.03-3.79,2.54-5.35,4.42-1.87,2.25-3.39,5-4.44,8.13-1.03,3.05-1.6,6.48-1.6,10.16ZM897.1,1818.24v-144.09c0-9.34,1.59-18.35,4.47-26.64,2.99-8.6,7.4-16.41,12.87-22.99,5.81-7,12.82-12.65,20.65-16.51,7.66-3.78,16.09-5.87,24.92-5.87h353.69c8.84,0,17.27,2.09,24.93,5.87,7.83,3.86,14.84,9.51,20.65,16.51,5.46,6.57,9.87,14.38,12.86,23,2.89,8.28,4.48,17.29,4.48,26.63v144.09c0,9.34-1.59,18.35-4.47,26.63-2.99,8.6-7.39,16.41-12.87,23-5.81,6.99-12.82,12.64-20.65,16.5-7.66,3.78-16.09,5.87-24.93,5.87h-44.77c-19.67,15.8-41.79,31.47-63.89,47.13l-.15.12c-11.58,8.18-23.16,16.39-35.44,25.4-11.35,8.34-22.27,16.68-32.34,25.02-2.84,2.32-6.16,3.94-9.69,4.69-3.44.73-7.09.66-10.68-.38-6.13-1.76-10.99-5.97-13.88-11.33-2.83-5.22-3.77-11.6-2.16-17.88,2.52-9.71,5.91-19.16,9.73-28.46,3.85-9.37,7.99-18.28,12.12-27.19,2.65-5.71,5.31-11.43,7.81-17.12h-170.35c-8.83,0-17.26-2.09-24.92-5.87-7.83-3.86-14.84-9.51-20.65-16.5-5.47-6.59-9.88-14.39-12.87-22.99-2.88-8.29-4.47-17.3-4.47-26.64h0ZM1013.59,1098.51l100.12-231.66-187.94,125.52,15.03-23.66c19.49-30.71,307.77-484.85,312.86-490.06l21.42-21.95-156.53,352.51,178.03-91.68-23.48,37.89c-64.85,104.69-242.7,452.62-324.57,509.75-46.29,19.47-71.35-15.26-100.6-57.15-32.24-46.19-36.72-95.52-103-182.16-145.83-190.6-127.81-459.38,42.2-629.11,186.56-186.21,487.14-186.58,674.77-.29,171.02,169.8,189.55,439.57,42.33,630.62-76.73,99.58-119.06,223.74-119.06,349.56,0,26.73-21.93,48.65-48.66,48.65h-401.75c-17.86,0-35.32-12.93-42.75-30.05l-.07.04c-14.63-32.44,13.16-67.32,42.82-67.32h355c9.64-130.25,57.79-256.66,137.55-360.21,117.32-152.31,102.53-367.01-33.99-502.56-149.5-148.42-389.54-147.66-537.83.64-134.81,134.8-149.55,349.16-33.34,501,37.26,48.69,67.58,101.52,90.64,158.12,12.41,30.48,50.33,88.96,55.88,79.26h.01c5.24-12.05,10.41-25.02,15.68-38.21,9.4-23.57,19.11-47.9,29.23-67.49h0Z" style="fill: url(#linear-gradient); fill-rule: evenodd;"/>
    </g>
  </g>
</svg>
